<?xml version="1.0" encoding="UTF-8" standalone="no"?>
<!-- Created with Inkscape (http://www.inkscape.org/) -->

<svg
   xmlns:dc="http://purl.org/dc/elements/1.1/"
   xmlns:cc="http://creativecommons.org/ns#"
   xmlns:rdf="http://www.w3.org/1999/02/22-rdf-syntax-ns#"
   xmlns:svg="http://www.w3.org/2000/svg"
   xmlns="http://www.w3.org/2000/svg"
   xmlns:inkscape="http://www.inkscape.org/namespaces/inkscape"
   version="1.1"
   width="221.25"
   height="218.75"
   id="svg2"
   xml:space="preserve"><metadata
     id="metadata8"><rdf:RDF><cc:Work
         rdf:about=""><dc:format>image/svg+xml</dc:format><dc:type
           rdf:resource="http://purl.org/dc/dcmitype/StillImage" /></cc:Work></rdf:RDF></metadata><defs
     id="defs6" /><g
     transform="matrix(1.25,0,0,-1.25,0,218.75)"
     id="g10"><g
       transform="scale(0.1,0.1)"
       id="g12"><path
         d="m 1422.58,1234.3 60.51,0 c -9.69,67.65 -29.69,130.66 -60,188.98 -30.36,58.36 -69.03,110 -116.02,155 -46.99,45.35 -100.51,82.03 -160.51,110 -59.65,28.01 -123.67,45.35 -191.99,52.03 l 0,-60 c 60,-6.68 116.33,-22.34 168.98,-47.03 52.35,-25 99.34,-57.3 141.02,-96.99 41.68,-39.65 76.02,-85.16 103.01,-136.49 27.34,-51.01 45.66,-106.17 55,-165.5"
         inkscape:connector-curvature="0"
         id="path14"
         style="fill:#47a8de;fill-opacity:1;fill-rule:evenodd;stroke:none" /><path
         d="m 819.57,1677.3 0,60.51 c -65.66,-9.02 -126.992,-28.01 -183.98,-57.03 -57.039,-28.63 -108.012,-65.31 -153.012,-110 -44.687,-44.65 -81.527,-95.47 -110.508,-152.5 -28.98,-56.99 -48.16,-118.16 -57.5,-183.48 l 60.508,0 c 12.344,76.65 38.981,146.18 80,208.48 41.332,62.35 93.16,113.87 155.512,154.53 62.648,40.98 132.301,67.5 208.98,79.49"
         inkscape:connector-curvature="0"
         id="path16"
         style="fill:#f3ba17;fill-opacity:1;fill-rule:evenodd;stroke:none" /><path
         d="m 371.051,1099.3 -60,0 c 6.679,-68.67 24.027,-133.171 52.039,-193.519 27.961,-60 64.64,-113.633 110,-160.98 45.308,-47.34 97.301,-86.172 155.969,-116.52 58.671,-30.312 121.992,-50.312 190,-60 l 0,60.508 c -59.649,9.34 -115.149,27.66 -166.481,55 -51.68,26.992 -97.348,61.52 -136.988,103.512 -40,41.648 -72.5,88.988 -97.5,142 -25,52.648 -40.668,109.329 -47.039,169.999"
         inkscape:connector-curvature="0"
         id="path18"
         style="fill:#3f78ba;fill-opacity:1;fill-rule:evenodd;stroke:none" /><path
         d="m 954.57,625.781 0,-60 c 70.66,7.028 136.84,25.348 198.52,55 61.32,29.688 115.82,68.36 163.47,116.02 47.66,47.648 86.17,102.34 115.51,163.98 29.34,61.367 47.34,127.499 53.98,198.519 l -60,0 c -6.64,-62.66 -23.16,-121.019 -49.49,-174.999 -25.97,-54.34 -60.15,-102.66 -102.5,-145 -41.99,-42.352 -90.15,-76.84 -144.49,-103.52 -54.34,-26.332 -112.66,-42.972 -175,-50"
         inkscape:connector-curvature="0"
         id="path20"
         style="fill:#2b3d4f;fill-opacity:1;fill-rule:evenodd;stroke:none" /><path
         d="m 713.871,969.301 143.039,402.419 54.649,0 143.011,-402.419 -48.71,0 -40.782,116.949 -165.937,0 -40.782,-116.949 -44.488,0 z m 236.481,159.139 -68.243,196.29 -68.519,-196.29"
         inkscape:connector-curvature="0"
         id="path22"
         style="fill:#2b3d4f;fill-opacity:1;fill-rule:evenodd;stroke:none" /><path
         d="m 108.48,319.609 41.559,0 108.441,-305.3082 -37.031,0 -30.937,88.7502 -125.7815,0 -30.9414,-88.7502 -33.7500375,0 L 108.48,319.609 z m 19.219,-35.629 -52.0388,-148.902 103.7498,0 -51.711,148.902 z m 353.59,37.821 c 27.813,0 55.473,-5.473 82.973,-16.41 l -11.25,-30.313 c -27.813,9.57 -52.114,14.371 -72.813,14.371 -17.187,0 -33.129,-3.398 -47.82,-10.148 -14.68,-6.801 -26.867,-15.903 -36.559,-27.352 -9.691,-11.359 -17.269,-24.371 -22.66,-39.058 -5.43,-14.692 -8.121,-30.082 -8.121,-46.09 0,-16.571 2.852,-32.352 8.59,-47.352 5.82,-15 13.949,-28.1209 24.383,-39.3709 C 408.52,68.9102 421.52,60 437.07,53.3594 c 15.508,-6.5586 32.539,-9.8399 51.09,-9.8399 22.07,0 45.039,4.2891 68.91,12.961 l 11.25,-27.1797 c -30,-12.9297 -59.8,-19.37892 -89.371,-19.37892 -18.359,0 -35.551,2.65622 -51.57,7.96872 -16.051,5.3086 -30.078,12.6992 -42.027,22.1875 -11.993,9.5703 -22.301,20.8633 -30.942,33.9024 -8.551,13.0078 -15,27.3905 -19.371,43.1285 -4.379,15.7 -6.559,32.231 -6.559,49.532 0,29.379 6.09,55.699 18.282,79.058 12.258,23.321 30.078,41.801 53.437,55.473 23.43,13.75 50.461,20.629 81.09,20.629 z m 237.34,-2.192 41.57,0 108.43,-305.3082 -37.027,0 -30.942,88.7502 -125.781,0 -30.93,-88.7502 -33.75,0 108.43,305.3082 z m 19.223,-35.629 -52.032,-148.902 103.75,0 -51.718,148.902 z m 240.628,3.442 0,-240.9415 44.37,0 c 6.45,0 11.76,0.039 15.94,0.1601 4.26,0.1992 10,0.6602 17.19,1.4102 7.26,0.6992 13.51,1.75 18.75,3.1211 5.19,1.4492 11.13,3.5195 17.81,6.25 6.64,2.8086 12.54,6.1289 17.66,10 5.19,3.8281 10.35,8.75 15.46,14.6875 5.2,6.0195 9.73,12.8515 13.6,20.4686 9.45,18.203 14.22,40.352 14.22,66.402 0,18.008 -2.62,34.258 -7.82,48.75 -5.23,14.571 -12.18,26.411 -20.93,35.469 -8.68,9.141 -17.89,16.41 -27.66,21.723 -9.8,5.308 -20.08,8.906 -30.78,10.777 -6.37,1.141 -15.9,1.723 -28.59,1.723 l -59.22,0 z m 57.97,32.187 c 19.76,0 37.73,-1.988 53.9,-5.937 16.13,-3.981 29.69,-9.531 40.63,-16.723 11.01,-7.109 20.47,-15.148 28.28,-24.219 7.89,-8.98 14.06,-19.019 18.44,-30.152 4.37,-11.168 7.53,-22.109 9.53,-32.808 1.95,-10.75 2.97,-21.879 2.97,-33.442 0,-13.359 -1.02,-26.207 -2.97,-38.598 -2,-12.3 -5.47,-24.8 -10.47,-37.5 -4.92,-12.73 -11.21,-24.1402 -18.91,-34.2105 -7.62,-10.1211 -17.5,-19.2187 -29.69,-27.3476 -12.18,-8.1211 -26.01,-14.1407 -41.4,-17.9727 -8.05,-1.9883 -16.99,-3.5078 -26.88,-4.5273 -9.92,-0.9414 -18.08,-1.5235 -24.53,-1.7227 -6.48,-0.1094 -15.58,-0.1484 -27.34,-0.1484 l -66.1,0 0,305.3082 94.54,0 z m 250.07,-305.3082 0,305.3082 178.91,0 0,-32.187 -142.34,0 0,-99.692 130.62,0 0,-32.339 -130.62,0 0,-108.9105 142.34,0 0,-32.1797 -178.91,0 z m 389.93,308.1212 c 23.43,0 48.67,-4.141 75.78,-12.344 l -11.72,-33.277 c -25.86,7.5 -48.21,11.25 -67.03,11.25 -21.25,0 -39.22,-4.5 -53.91,-13.442 -14.69,-8.98 -22.03,-20.55 -22.03,-34.687 0,-7.934 2.34,-14.961 7.03,-21.094 4.77,-6.168 11.02,-11.168 18.75,-15 7.81,-3.867 16.6,-7.738 26.41,-11.558 9.88,-3.75 19.92,-7.27 30.15,-10.469 10.32,-3.129 20.39,-7.153 30.32,-12.031 9.88,-4.809 18.67,-10.122 26.4,-15.942 7.7,-5.859 13.91,-13.398 18.6,-22.656 4.76,-9.293 7.18,-19.801 7.18,-31.5626 0,-8.1289 -1.33,-16.25 -3.9,-24.3789 -2.62,-8.1211 -6.96,-16.1719 -12.97,-24.0586 -5.94,-7.9336 -13.4,-14.9219 -22.35,-20.9414 -8.86,-6.0508 -20.07,-10.9297 -33.59,-14.6797 -13.44,-3.75 -28.52,-5.62892 -45.16,-5.62892 -16.56,0 -31.87,1.71872 -45.93,5.15622 -13.99,3.5117 -29.61,8.75 -46.88,15.6211 l 12.5,35.3203 c 35.82,-13.25 64.1,-19.8476 84.85,-19.8476 21.75,0 39.45,4.2969 53.12,12.9687 13.75,8.75 20.63,20.4688 20.63,35.1602 0,9.6792 -3.09,18.0392 -9.22,25.1482 -6.06,7.071 -13.91,12.821 -23.6,17.192 -9.68,4.379 -20.43,8.437 -32.18,12.187 -11.68,3.832 -23.4,7.973 -35.16,12.344 -11.68,4.379 -22.34,9.418 -32.03,15.156 -9.61,5.703 -17.46,13.442 -23.6,23.121 -6.05,9.77 -9.06,21.25 -9.06,34.379 0,11.762 2.81,23.012 8.44,33.75 5.7,10.703 13.59,20.152 23.59,28.281 10,8.121 22.5,14.571 37.5,19.371 15.08,4.77 31.45,7.192 49.07,7.192"
         inkscape:connector-curvature="0"
         id="path24"
         style="fill:#2c3e51;fill-opacity:1;fill-rule:nonzero;stroke:none" /></g></g></svg>